Coordinates
version=1
nRows=9
nColumns=24
inDegrees=yes

Units are S.I. units (second, meters, Newtons, ...)
Angles are in degrees.

endheader
time	pelvis_tilt	pelvis_list	pelvis_rotation	pelvis_tx	pelvis_ty	pelvis_tz	hip_flexion_r	hip_adduction_r	hip_rotation_r	knee_angle_r	ankle_angle_r	subtalar_angle_r	mtp_angle_r	hip_flexion_l	hip_adduction_l	hip_rotation_l	knee_angle_l	ankle_angle_l	subtalar_angle_l	mtp_angle_l	lumbar_extension	lumbar_bending	lumbar_rotation
      6.65000000	     36.95673405	      0.95134905	      3.08835294	      1.96110005	      0.67444354	     -0.25858271	    -32.81242166	      4.52735597	     -5.92719922	    -14.10005642	     20.72111747	      6.04447607	      0.00000000	    -20.00725222	     -4.78104655	     -7.36419522	    -68.84706437	      8.82872863	      4.11598003	      0.00000000	    -62.10323159	      5.33540085	     -9.58626029
      6.65500000	     36.89187658	      1.03706094	      2.80433330	      1.96619591	      0.67471973	     -0.25839282	    -33.43972364	      4.33378878	     -5.77965658	    -13.70734615	     20.91509536	      6.10598120	      0.00000000	    -19.09570935	     -4.43690955	     -7.62524770	    -68.43677194	      9.57725343	      4.33281967	      0.00000000	    -62.16792098	      5.10136371	     -9.42730794
      6.66000000	     36.83483138	      1.09027691	      2.47616150	      1.97126245	      0.67494602	     -0.25817904	    -34.05693944	      4.13625520	     -5.63095076	    -13.33652770	     21.11656673	      6.21312015	      0.00000000	    -18.22508222	     -4.12543990	     -7.95973895	    -67.92120366	     10.28229579	      4.52537511	      0.00000000	    -62.25292947	      4.84308942	     -9.19914868
      6.66500000	     36.86123686	      1.05846035	      1.99955512	      1.97632234	      0.67519621	     -0.25799456	    -34.74557973	      3.91341629	     -5.26862567	    -12.98680316	     21.32606550	      6.33019208	      0.00000000	    -17.52883425	     -3.83776808	     -8.45922654	    -67.24060955	     10.90332111	      4.59907901	      0.00000000	    -62.43155275	      4.56826244	     -8.79425770
      6.67000000	     36.77350147	      1.11550197	      1.81572128	      1.98137538	      0.67528525	     -0.25795217	    -35.34010112	      3.78668920	     -5.21946511	    -12.59105194	     21.46856148	      6.30678862	      0.00000000	    -16.62394623	     -3.56653260	     -8.63637018	    -66.57347681	     11.47178478	      4.67741297	      0.00000000	    -62.48112221	      4.44523192	     -8.64230957
      6.67500000	     36.80095622	      1.10882332	      1.36447625	      1.98644265	      0.67543363	     -0.25770705	    -36.03055892	      3.54867323	     -4.92198187	    -12.24368719	     21.71013891	      6.48759052	      0.00000000	    -15.97368385	     -3.29725853	     -9.10158835	    -65.69739123	     11.98156516	      4.81429838	      0.00000000	    -62.65711348	      4.13625970	     -8.31451354
      6.68000000	     36.70500483	      1.14733747	      1.21124902	      1.99146691	      0.67540616	     -0.25767769	    -36.60157856	      3.45132629	     -4.89102446	    -11.86875344	     21.82929523	      6.45216710	      0.00000000	    -15.10113385	     -3.06802619	     -9.24819266	    -64.84796773	     12.44670537	      4.86526312	      0.00000000	    -62.70881456	      4.02968027	     -8.15126352
      6.68500000	     36.72441750	      1.14164492	      0.82286648	      1.99653324	      0.67543942	     -0.25745335	    -37.28514989	      3.24237153	     -4.66808647	    -11.51517642	     22.07919622	      6.62145825	      0.00000000	    -14.48307714	     -2.83811101	     -9.65415998	    -63.78843807	     12.82634101	      4.94387640	      0.00000000	    -62.86992924	      3.76107954	     -7.89179502
      6.69000000	     36.62502358	      1.14058627	      0.70675785	      2.00153656	      0.67529612	     -0.25748084	    -37.84214119	      3.19413963	     -4.64355386	    -11.15330989	     22.17604442	      6.58953281	      0.00000000	    -13.65616730	     -2.66179105	     -9.75661852	    -62.75881856	     13.20422559	      4.93687953	      0.00000000	    -62.92772038	      3.70959484	     -7.69997174
